<svg width="1728" height="1118" viewBox="0 0 1728 1118" fill="none" xmlns="http://www.w3.org/2000/svg">
<rect width="1728" height="1118" fill="#CAD6F2"/>
<circle cx="895" cy="579" r="192" fill="#282C36"/>
<circle cx="894.5" cy="578.5" r="218" stroke="#5B657C"/>
<path d="M831.935 552.24C830.388 552.24 828.868 551.987 827.375 551.48C825.908 550.947 824.575 550.187 823.375 549.2C822.175 548.213 821.242 547.027 820.575 545.64L822.335 544.8C823.002 546.053 823.842 547.093 824.855 547.92C825.895 548.747 827.015 549.36 828.215 549.76C829.415 550.16 830.615 550.36 831.815 550.36C833.442 550.36 834.948 550.027 836.335 549.36C837.748 548.667 838.975 547.733 840.015 546.56C841.055 545.36 841.855 544 842.415 542.48C842.975 540.96 843.242 539.373 843.215 537.72L844.135 538.36H829.095V536.6H844.095L843.215 537.2C843.188 535.733 842.908 534.293 842.375 532.88C841.868 531.467 841.122 530.2 840.135 529.08C839.175 527.933 838.002 527.027 836.615 526.36C835.228 525.667 833.655 525.32 831.895 525.32C830.748 525.32 829.602 525.493 828.455 525.84C827.335 526.187 826.295 526.76 825.335 527.56C824.375 528.333 823.548 529.347 822.855 530.6L821.135 529.64C822.068 527.827 823.428 526.347 825.215 525.2C827.002 524.027 829.188 523.44 831.775 523.44C833.935 523.44 835.855 523.853 837.535 524.68C839.215 525.507 840.628 526.6 841.775 527.96C842.948 529.32 843.828 530.84 844.415 532.52C845.028 534.2 845.335 535.907 845.335 537.64C845.335 539.48 845.015 541.267 844.375 543C843.735 544.733 842.815 546.293 841.615 547.68C840.415 549.067 838.988 550.173 837.335 551C835.708 551.827 833.908 552.24 831.935 552.24ZM871.556 525.44H861.156V552H859.116V525.44H848.716V523.6H871.556V525.44ZM884.16 523.6H885.92L897.92 552H895.76L891.8 542.64H878.24L874.28 552H872.08L884.16 523.6ZM891.24 540.96L885.04 526.08L878.72 540.96H891.24ZM904.232 552V523.6H925.192V552H923.152V525.44H906.272V552H904.232ZM934.63 552V523.6H936.67V534.88H944.23C946.283 534.88 947.977 535.24 949.31 535.96C950.643 536.68 951.643 537.68 952.31 538.96C952.977 540.24 953.31 541.733 953.31 543.44C953.31 544.987 952.977 546.413 952.31 547.72C951.67 549 950.683 550.04 949.35 550.84C948.043 551.613 946.403 552 944.43 552H934.63ZM936.67 550.24H944.19C945.87 550.24 947.23 549.92 948.27 549.28C949.31 548.613 950.057 547.76 950.51 546.72C950.99 545.68 951.23 544.587 951.23 543.44C951.23 542.267 951.017 541.16 950.59 540.12C950.19 539.08 949.47 538.24 948.43 537.6C947.39 536.96 945.95 536.64 944.11 536.64H936.67V550.24ZM958.43 552V523.64H960.47V552H958.43ZM780.961 604.44V595.04H782.321C783.067 595.04 783.707 594.747 784.241 594.16C784.801 593.573 785.267 592.64 785.641 591.36C786.041 590.08 786.347 588.4 786.561 586.32C786.801 584.213 786.974 581.64 787.081 578.6L787.281 570.6H805.561V595.04H809.161V604.44H805.201V599H784.921V604.44H780.961ZM788.001 595.04H801.041V574.56H791.441L791.321 579.2C791.241 582.267 791.081 584.867 790.841 587C790.601 589.107 790.254 590.813 789.801 592.12C789.347 593.427 788.747 594.4 788.001 595.04ZM827.539 599.2C825.486 599.2 823.632 598.8 821.979 598C820.326 597.2 818.899 596.12 817.699 594.76C816.499 593.373 815.566 591.827 814.899 590.12C814.259 588.387 813.939 586.613 813.939 584.8C813.939 582.907 814.286 581.107 814.979 579.4C815.672 577.667 816.632 576.133 817.859 574.8C819.086 573.44 820.526 572.373 822.179 571.6C823.859 570.8 825.672 570.4 827.619 570.4C829.646 570.4 831.486 570.813 833.139 571.64C834.819 572.467 836.246 573.573 837.419 574.96C838.619 576.347 839.539 577.893 840.179 579.6C840.846 581.307 841.179 583.053 841.179 584.84C841.179 586.733 840.832 588.547 840.139 590.28C839.472 591.987 838.526 593.52 837.299 594.88C836.072 596.213 834.619 597.267 832.939 598.04C831.286 598.813 829.486 599.2 827.539 599.2ZM818.499 584.8C818.499 586.133 818.712 587.427 819.139 588.68C819.566 589.933 820.166 591.053 820.939 592.04C821.739 593 822.699 593.76 823.819 594.32C824.939 594.88 826.192 595.16 827.579 595.16C829.019 595.16 830.299 594.867 831.419 594.28C832.539 593.693 833.472 592.907 834.219 591.92C834.992 590.907 835.579 589.787 835.979 588.56C836.379 587.307 836.579 586.053 836.579 584.8C836.579 583.467 836.366 582.187 835.939 580.96C835.539 579.707 834.939 578.6 834.139 577.64C833.339 576.653 832.379 575.88 831.259 575.32C830.166 574.76 828.939 574.48 827.579 574.48C826.139 574.48 824.859 574.773 823.739 575.36C822.619 575.947 821.672 576.733 820.899 577.72C820.126 578.707 819.526 579.813 819.099 581.04C818.699 582.267 818.499 583.52 818.499 584.8ZM846.017 584.6C846.017 582.867 846.324 581.173 846.937 579.52C847.551 577.84 848.444 576.32 849.617 574.96C850.817 573.573 852.271 572.48 853.977 571.68C855.684 570.853 857.617 570.44 859.777 570.44C862.337 570.44 864.551 571.027 866.417 572.2C868.284 573.347 869.671 574.827 870.577 576.64L867.057 579C866.524 577.853 865.844 576.947 865.017 576.28C864.217 575.613 863.337 575.147 862.377 574.88C861.444 574.613 860.524 574.48 859.617 574.48C858.124 574.48 856.817 574.787 855.697 575.4C854.577 575.987 853.631 576.773 852.857 577.76C852.111 578.747 851.537 579.853 851.137 581.08C850.764 582.307 850.577 583.533 850.577 584.76C850.577 586.12 850.804 587.44 851.257 588.72C851.711 589.973 852.337 591.093 853.137 592.08C853.964 593.04 854.937 593.8 856.057 594.36C857.177 594.92 858.404 595.2 859.737 595.2C860.644 595.2 861.591 595.04 862.577 594.72C863.564 594.4 864.471 593.907 865.297 593.24C866.151 592.547 866.817 591.64 867.297 590.52L871.017 592.64C870.431 594.053 869.511 595.253 868.257 596.24C867.031 597.227 865.644 597.973 864.097 598.48C862.577 598.987 861.071 599.24 859.577 599.24C857.577 599.24 855.751 598.827 854.097 598C852.444 597.147 851.017 596.027 849.817 594.64C848.617 593.227 847.684 591.653 847.017 589.92C846.351 588.16 846.017 586.387 846.017 584.6ZM898.001 574.56H888.561V599H884.041V574.56H874.561V570.6H898.001V574.56ZM909.392 570.6H913.632L924.672 599H919.952L916.952 591.28H905.992L903.032 599H898.272L909.392 570.6ZM916.072 587.96L911.512 575.52L906.792 587.96H916.072ZM952.504 591.68C952.504 593.2 952.104 594.507 951.304 595.6C950.531 596.693 949.478 597.533 948.144 598.12C946.811 598.707 945.344 599 943.744 599H930.184V570.6H944.824C946.158 570.6 947.304 570.96 948.264 571.68C949.251 572.373 949.998 573.28 950.504 574.4C951.038 575.493 951.304 576.64 951.304 577.84C951.304 579.227 950.944 580.533 950.224 581.76C949.531 582.96 948.531 583.853 947.224 584.44C948.851 584.92 950.131 585.8 951.064 587.08C952.024 588.333 952.504 589.867 952.504 591.68ZM947.904 590.84C947.904 590.04 947.731 589.32 947.384 588.68C947.064 588.013 946.611 587.48 946.024 587.08C945.464 586.653 944.798 586.44 944.024 586.44H934.664V595.12H943.744C944.544 595.12 945.251 594.933 945.864 594.56C946.504 594.16 946.998 593.64 947.344 593C947.718 592.333 947.904 591.613 947.904 590.84ZM934.664 574.48V582.84H942.904C943.651 582.84 944.318 582.667 944.904 582.32C945.491 581.947 945.958 581.453 946.304 580.84C946.651 580.2 946.824 579.48 946.824 578.68C946.824 577.853 946.664 577.133 946.344 576.52C946.024 575.88 945.584 575.387 945.024 575.04C944.491 574.667 943.864 574.48 943.144 574.48H934.664ZM959.217 599V570.6H963.697V582.48H967.017L975.937 570.6H981.057L970.617 584.36L981.817 599H976.337L967.017 586.6H963.697V599H959.217ZM988.134 599V570.6H992.614V592.68L1007.77 570.6H1011.97V599H1007.49V577.28L992.494 599H988.134ZM854.093 617.6H855.853L867.853 646H865.693L861.733 636.64H848.173L844.213 646H842.013L854.093 617.6ZM861.173 634.96L854.973 620.08L848.653 634.96H861.173ZM895.085 638.64C895.085 640.027 894.739 641.28 894.045 642.4C893.379 643.493 892.459 644.373 891.285 645.04C890.139 645.68 888.859 646 887.445 646H874.165V617.6H887.405C888.739 617.6 889.885 617.96 890.845 618.68C891.832 619.373 892.579 620.28 893.085 621.4C893.619 622.493 893.885 623.64 893.885 624.84C893.885 626.253 893.525 627.573 892.805 628.8C892.085 630 891.085 630.88 889.805 631.44C891.432 631.92 892.712 632.827 893.645 634.16C894.605 635.467 895.085 636.96 895.085 638.64ZM893.045 638.36C893.045 637.347 892.805 636.4 892.325 635.52C891.872 634.64 891.245 633.92 890.445 633.36C889.645 632.8 888.739 632.52 887.725 632.52H876.205V644.16H887.445C888.485 644.16 889.432 643.893 890.285 643.36C891.139 642.8 891.805 642.08 892.285 641.2C892.792 640.293 893.045 639.347 893.045 638.36ZM876.205 619.44V630.8H886.605C887.645 630.8 888.552 630.533 889.325 630C890.125 629.44 890.752 628.733 891.205 627.88C891.659 627 891.885 626.08 891.885 625.12C891.885 624.08 891.672 623.133 891.245 622.28C890.819 621.427 890.219 620.747 889.445 620.24C888.699 619.707 887.832 619.44 886.845 619.44H876.205ZM921.865 619.44H911.465V646H909.425V619.44H899.025V617.6H921.865V619.44ZM938.47 646.2C936.496 646.2 934.696 645.8 933.07 645C931.443 644.173 930.043 643.08 928.87 641.72C927.696 640.36 926.79 638.827 926.15 637.12C925.51 635.387 925.19 633.613 925.19 631.8C925.19 629.907 925.523 628.107 926.19 626.4C926.856 624.667 927.79 623.133 928.99 621.8C930.216 620.44 931.63 619.373 933.23 618.6C934.856 617.8 936.616 617.4 938.51 617.4C940.51 617.4 942.31 617.813 943.91 618.64C945.536 619.467 946.936 620.573 948.11 621.96C949.283 623.347 950.19 624.893 950.83 626.6C951.47 628.307 951.79 630.04 951.79 631.8C951.79 633.72 951.456 635.547 950.79 637.28C950.123 638.987 949.176 640.52 947.95 641.88C946.75 643.213 945.336 644.267 943.71 645.04C942.11 645.813 940.363 646.2 938.47 646.2ZM927.23 631.8C927.23 633.427 927.51 634.987 928.07 636.48C928.63 637.973 929.403 639.307 930.39 640.48C931.403 641.653 932.59 642.587 933.95 643.28C935.336 643.973 936.856 644.32 938.51 644.32C940.19 644.32 941.723 643.96 943.11 643.24C944.496 642.52 945.683 641.56 946.67 640.36C947.656 639.16 948.403 637.827 948.91 636.36C949.443 634.867 949.71 633.347 949.71 631.8C949.71 630.173 949.43 628.613 948.87 627.12C948.336 625.627 947.563 624.293 946.55 623.12C945.536 621.947 944.336 621.013 942.95 620.32C941.59 619.627 940.11 619.28 938.51 619.28C936.803 619.28 935.256 619.64 933.87 620.36C932.483 621.08 931.296 622.04 930.31 623.24C929.35 624.44 928.59 625.787 928.03 627.28C927.496 628.747 927.23 630.253 927.23 631.8Z" fill="white"/>
<path d="M1043.5 432H1056V421" stroke="#5B657C"/>
<path d="M741 435.5L741 423L730 423" stroke="#5B657C"/>
<path d="M1052.53 715.454L1052.98 727.945L1063.97 727.546" stroke="#5B657C"/>
<path d="M742.5 722L730 722L730 733" stroke="#5B657C"/>
</svg>
